#!OML:ASF E:\Style4\Style4.ASF
:FULLY-SPECIFIED
:DEGREES
2786
root 1.13295 17.1933 -1.34065 6.12774 -5.26121 3.53587
lowerback 16.5886 1.24045 2.2396
upperback 12.6947 1.80319 1.8889
thorax 4.3129 0.957966 0.515405
lowerneck 4.36834 -3.79427 -5.92291
upperneck -8.95317 -5.73747 -1.47017
head -3.54654 -2.5939 0.794855
rclavicle 3.18055e-015 1.59028e-014
rhumerus 26.6918 29.483 -84.6132
rradius 98.0813
rwrist -39.5327
rhand -38.3861 32.7562
rfingers 7.12502
rthumb -11.4116 3.08676
lclavicle 3.18055e-015 1.59028e-014
lhumerus 54.2242 -20.7786 18.6537
lradius 100.652
lwrist 57.6716
lhand -18.0121 37.2902
lfingers 7.12502
lthumb 8.25869 67.1088
rfemur -32.9411 -5.34612 12.3439
rtibia 48.2328
rfoot -18.8911 -14.4322
rtoes -14.6986
lfemur -30.353 3.51941 -26.8033
ltibia 46.6147
lfoot -23.5328 12.4141
ltoes -10.2976
2787
root 1.13126 17.1865 -1.33013 6.13563 -5.43277 3.47618
lowerback 16.4602 1.17599 2.14087
upperback 12.6918 1.70385 1.79176
thorax 4.37485 0.905412 0.483093
lowerneck 4.31804 -3.61597 -5.92229
upperneck -8.85485 -5.4769 -1.34607
head -3.50505 -2.47283 0.822161
rclavicle -9.54166e-015 2.70347e-014
rhumerus 26.3479 29.4767 -84.386
rradius 98.3265
rwrist -39.1125
rhand -38.3965 33.0805
rfingers 7.12502
rthumb -11.4217 3.41164
lclavicle -9.54166e-015 2.70347e-014
lhumerus 53.8892 -21.602 19.5111
lradius 101.049
lwrist 57.1329
lhand -18.6983 36.9398
lfingers 7.12502
lthumb 7.59638 66.7834
rfemur -33 -5.27175 12.4089
rtibia 48.3255
rfoot -19.0213 -14.2959
rtoes -14.361
lfemur -30.4078 3.51312 -26.7364
ltibia 46.7985
lfoot -23.7786 12.6502
ltoes -10.8427
2788
root 1.12677 17.1804 -1.32201 6.13482 -5.5752 3.3671
lowerback 16.4357 1.09502 2.15853
upperback 12.646 1.60161 1.66244
thorax 4.34015 0.860136 0.348458
lowerneck 4.2795 -3.44744 -5.90908
upperneck -8.72582 -5.22658 -1.20205
head -3.45503 -2.35867 0.854164
rclavicle -1.27222e-014 -1.43125e-014
rhumerus 25.9115 29.4539 -84.2623
rradius 98.5968
rwrist -38.6672
rhand -38.5092 33.3071
rfingers 7.12502
rthumb -11.5304 3.64428
lclavicle -1.27222e-014 -1.43125e-014
lhumerus 53.6643 -22.3896 20.3477
lradius 101.371
lwrist 56.5126
lhand -19.1134 36.7043
lfingers 7.12502
lthumb 7.19564 66.562
rfemur -33.0397 -5.20169 12.5479
rtibia 48.3994
rfoot -19.0672 -14.2448
rtoes -14.5336
lfemur -30.4669 3.56353 -26.6072
ltibia 46.9919
lfoot -23.9635 12.7884
ltoes -10.8818
2789
root 1.12265 17.1739 -1.31487 6.09919 -5.67221 3.28488
lowerback 16.4601 0.994486 2.22356
upperback 12.5914 1.48197 1.49696
thorax 4.27227 0.81087 0.150153
lowerneck 4.21348 -3.29999 -5.88984
upperneck -8.53813 -4.99933 -1.04558
head -3.37899 -2.25832 0.888417
rclavicle -4.77083e-015 -7.95139e-015
rhumerus 25.422 29.3995 -84.1764
rradius 98.8824
rwrist -38.2227
rhand -38.389 33.6826
rfingers 7.12502
rthumb -11.4144 4.01332
lclavicle -4.77083e-015 -7.95139e-015
lhumerus 53.5538 -23.057 21.1839
lradius 101.56
lwrist 55.6994
lhand -19.1385 36.6281
lfingers 7.12502
lthumb 7.17143 66.4866
rfemur -33.033 -5.20046 12.6601
rtibia 48.456
rfoot -19.0533 -14.2118
rtoes -14.9245
lfemur -30.4975 3.54489 -26.502
ltibia 47.1762
lfoot -24.1011 12.9434
ltoes -10.8952
2790
root 1.11754 17.1692 -1.30515 5.99591 -5.8047 3.17956
lowerback 16.5566 0.913409 2.31331
upperback 12.5467 1.39186 1.34027
thorax 4.17831 0.777199 -0.0573203
lowerneck 4.10209 -3.15998 -5.87919
upperneck -8.31651 -4.77691 -0.863796
head -3.28226 -2.16201 0.931008
rclavicle 3.26007e-014 5.56597e-015
rhumerus 24.8834 29.3935 -84.0838
rradius 99.205
rwrist -37.6096
rhand -38.4904 33.9973
rfingers 7.12502
rthumb -11.5122 4.3334
lclavicle 3.26007e-014 5.56597e-015
lhumerus 53.4906 -23.7775 21.9298
lradius 101.984
lwrist 55.5081
lhand -20.1722 36.9031
lfingers 7.12502
lthumb 6.17353 66.7932
rfemur -32.9289 -5.12994 12.7903
rtibia 48.4977
rfoot -19.0444 -14.2236
rtoes -15.0108
lfemur -30.4325 3.5128 -26.3544
ltibia 47.3446
lfoot -24.2684 12.9638
ltoes -10.1516
